<svg xmlns="http://www.w3.org/2000/svg" width="1200" height="1200" viewBox="0 0 1200 1200">
  <defs>
    <linearGradient id="mag" x1="0" y1="0" x2="1" y2="1">
      <stop offset="0" stop-color="#E6007E"/>
      <stop offset="1" stop-color="#FF4DA6"/>
    </linearGradient>
    <radialGradient id="glow" cx="50%" cy="50%" r="50%">
      <stop offset="0" stop-color="#E6007E" stop-opacity="0.5"/>
      <stop offset="100%" stop-color="#E6007E" stop-opacity="0"/>
    </radialGradient>
    <pattern id="grid" width="48" height="48" patternUnits="userSpaceOnUse">
      <path d="M48 0H0V48" fill="none" stroke="#ffffff" stroke-opacity="0.05" stroke-width="1"/>
    </pattern>
  </defs>
  <rect width="1200" height="1200" fill="#0A0A0C"/>
  <rect width="1200" height="1200" fill="url(#grid)"/>
  <circle cx="880" cy="760" r="420" fill="url(#glow)"/>
  <!-- network motif (bottom-right) -->
  <g stroke="url(#mag)" stroke-width="2" opacity="0.5">
    <line x1="760" y1="640" x2="930" y2="720"/>
    <line x1="930" y1="720" x2="850" y2="900"/>
    <line x1="850" y1="900" x2="700" y2="840"/>
    <line x1="700" y1="840" x2="760" y2="640"/>
    <line x1="930" y1="720" x2="1070" y2="660"/>
    <line x1="850" y1="900" x2="1000" y2="980"/>
    <line x1="700" y1="840" x2="620" y2="990"/>
  </g>
  <g fill="#FF4DA6">
    <circle cx="760" cy="640" r="9"/>
    <circle cx="930" cy="720" r="13"/>
    <circle cx="850" cy="900" r="10"/>
    <circle cx="700" cy="840" r="9"/>
    <circle cx="1070" cy="660" r="6"/>
    <circle cx="1000" cy="980" r="8"/>
    <circle cx="620" cy="990" r="6"/>
  </g>
  <!-- wordmark -->
  <text x="110" y="210" font-family="Helvetica, Arial, sans-serif" font-size="58" font-weight="700" fill="#ffffff">nubilink<tspan fill="#FF4DA6">.</tspan></text>
  <text x="112" y="248" font-family="Helvetica, Arial, sans-serif" font-size="21" letter-spacing="3" fill="#9C9C9D">RISING IN THE CLOUD</text>
  <!-- headline -->
  <text x="106" y="520" font-family="Helvetica, Arial, sans-serif" font-size="104" font-weight="700" fill="#ffffff">Reduce tu gasto</text>
  <text x="106" y="632" font-family="Helvetica, Arial, sans-serif" font-size="104" font-weight="700" fill="#ffffff">en AWS</text>
  <text x="106" y="744" font-family="Helvetica, Arial, sans-serif" font-size="104" font-weight="700" fill="url(#mag)">hasta un 25%.</text>
  <!-- eyebrow -->
  <rect x="110" y="1010" width="900" height="56" rx="28" fill="none" stroke="#ffffff" stroke-opacity="0.18"/>
  <circle cx="148" cy="1038" r="6" fill="#FF4DA6"/>
  <text x="172" y="1047" font-family="Helvetica, Arial, sans-serif" font-size="24" letter-spacing="2" fill="#CDCDCD">AWS SELECT CONSULTING PARTNER · AR · ES · US</text>
</svg>
